<?xml version="1.0" encoding="UTF-8"?>
<!-- Generated by Pixelmator Pro 3.5.6 -->
<svg width="1280" height="320" viewBox="0 0 1280 320" xmlns="http://www.w3.org/2000/svg">
    <g id="g1">
        <text id="RSUAnalyzer" xml:space="preserve"><tspan x="349" y="216" font-family="STIX Two Text" font-size="130" font-weight="500" fill="#026299" letter-spacing="5.010417" xml:space="preserve">RS</tspan><tspan font-family="STIX Two Text" font-size="130" font-weight="500" fill="#026299" letter-spacing="31.2" xml:space="preserve">U</tspan><tspan font-family="STIX Two Text" font-size="130" font-weight="500" fill="#026299" letter-spacing="5.010417" xml:space="preserve">Analyzer</tspan></text>
        <g id="-">
            <path id="path1" fill="#026299" fill-rule="evenodd" stroke="none" d="M 123.496094 254.972656 L 94.769531 222.876953 L 110.189453 203.933594 L 184.396484 215.722656 L 123.496094 254.972656 Z M 263.111328 135.578125 L 187.992188 123.644531 L 251.056641 83 L 279.783203 115.095703 L 263.111328 135.578125 Z"/>
            <path id="path2" fill="#026299" fill-rule="evenodd" stroke="none" d="M 186.910156 251.175781 C 154.270334 251.175781 126.100974 232.041135 113.001953 204.378906 L 139.714844 208.623047 C 151.00529 222.096358 167.956594 230.664063 186.910156 230.664063 C 205.858245 230.664063 222.805247 222.101356 234.095703 208.634766 L 260.8125 204.390625 C 247.711049 232.046477 219.545324 251.175781 186.910156 251.175781 Z M 112.640625 135.279297 C 125.578075 107.202397 153.967671 87.712891 186.910156 87.712891 C 219.848621 87.712891 248.234186 107.198154 261.173828 135.269531 L 235.375 131.171875 C 224.107907 116.800631 206.587474 107.566406 186.910156 107.566406 C 167.227913 107.566406 149.702328 116.80423 138.435547 131.181641 L 112.640625 135.279297 Z"/>
            <path id="--2" fill="#026299" fill-rule="evenodd" stroke="none" d="M 186.939987 130.890152 L 82.069664 147.55072 L 82.069664 190.624359 L 186.939987 207.284912 L 291.810333 190.624359 L 291.810333 147.55072 Z"/>
        </g>
    </g>
</svg>
