<?xml version="1.0" encoding="UTF-8"?>
<!-- Generated by Pixelmator Pro 3.5.6 -->
<svg width="1200" height="320" viewBox="0 0 1200 320" xmlns="http://www.w3.org/2000/svg">
    <g id="g1">
        <text id="RSUProject" xml:space="preserve"><tspan x="363" y="216" font-family="STIX Two Text" font-size="130" font-weight="500" fill="#026299" letter-spacing="5.010417" xml:space="preserve">RS</tspan><tspan font-family="STIX Two Text" font-size="130" font-weight="500" fill="#026299" letter-spacing="31.2" xml:space="preserve">U</tspan><tspan font-family="STIX Two Text" font-size="130" font-weight="500" fill="#026299" letter-spacing="5.010417" xml:space="preserve">Project</tspan></text>
        <g id="-">
            <path id="path1" fill="#026299" fill-rule="evenodd" stroke="none" d="M 137.496094 254.972656 L 108.769531 222.876953 L 124.189453 203.933594 L 198.396484 215.722656 L 137.496094 254.972656 Z M 277.111328 135.578125 L 201.992188 123.644531 L 265.056641 83 L 293.783203 115.095703 L 277.111328 135.578125 Z"/>
            <path id="path2" fill="#026299" fill-rule="evenodd" stroke="none" d="M 200.910156 251.175781 C 168.27034 251.175781 140.100967 232.041138 127.001953 204.378906 L 153.714844 208.623047 C 165.005295 222.096359 181.956589 230.664063 200.910156 230.664063 C 219.858246 230.664063 236.805252 222.101349 248.095703 208.634766 L 274.8125 204.390625 C 261.71106 232.046478 233.545319 251.175781 200.910156 251.175781 Z M 126.640625 135.279297 C 139.578079 107.202393 167.967667 87.712891 200.910156 87.712891 C 233.848618 87.712891 262.234192 107.198151 275.173828 135.269531 L 249.375 131.171875 C 238.10791 116.800629 220.587479 107.566406 200.910156 107.566406 C 181.227905 107.566406 163.702332 116.80423 152.435547 131.181641 L 126.640625 135.279297 Z"/>
            <path id="--2" fill="#026299" fill-rule="evenodd" stroke="none" d="M 200.939987 130.890152 L 96.069664 147.55072 L 96.069664 190.624359 L 200.939987 207.284912 L 305.810333 190.624359 L 305.810333 147.55072 Z"/>
        </g>
    </g>
</svg>
