<?xml version="1.0" encoding="UTF-8"?>
<!-- Generated by Pixelmator Pro 3.5.6 -->
<svg width="1200" height="1200" viewBox="0 0 1200 1200" xmlns="http://www.w3.org/2000/svg">
    <g id="-">
        <path id="path1" fill="#0376bb" fill-rule="evenodd" stroke="none" d="M 237.59375 1090.935547 L 73.580078 907.679688 L 161.621094 799.515625 L 585.320313 866.828125 L 237.59375 1090.935547 Z M 1034.742188 409.238281 L 605.847656 341.099609 L 965.917969 109.037109 L 1129.931641 292.292969 L 1034.742188 409.238281 Z"/>
        <path id="path2" fill="#0376bb" fill-rule="evenodd" stroke="none" d="M 599.664063 1069.261719 C 413.297592 1069.261719 252.447412 960.012801 177.660156 802.064453 L 330.191406 826.296875 C 394.655468 903.223071 491.447071 952.138672 599.664063 952.138672 C 707.851633 952.138672 804.620409 903.249449 869.083984 826.359375 L 1021.640625 802.123047 C 946.84137 960.039907 786.007551 1069.261719 599.664063 1069.261719 Z M 175.603516 407.541016 C 249.46907 247.223628 411.571226 135.939453 599.664063 135.939453 C 787.734857 135.939453 949.821643 247.197267 1023.699219 407.484375 L 876.378906 384.078125 C 812.048711 302.02444 712.013506 249.300781 599.664063 249.300781 C 487.286446 249.300781 387.229352 302.051673 322.900391 384.140625 L 175.603516 407.541016 Z"/>
        <path id="--2" fill="#0376bb" fill-rule="evenodd" stroke="none" d="M 599.833313 382.471252 L 1.064313 477.596619 L 1.064313 723.530457 L 599.833313 818.655823 L 1198.602295 723.530457 L 1198.602295 477.596619 Z"/>
    </g>
</svg>
